<svg width="40" height="40" viewBox="0 0 40 40" fill="none" xmlns="http://www.w3.org/2000/svg">
<g clip-path="url(#clip0_1212_189665)">
<rect width="40" height="40" fill="white"/>
<path d="M22.3779 23.2322V25.4656C24.1118 25.9424 25.9088 26.1051 25.9088 28.119C25.9088 28.6107 25.5244 29 25.0387 29H17.1271C16.6414 29 16.257 28.6107 16.257 28.119C16.257 26.1127 18.0781 25.9842 19.3124 25.4656V23.2322H18.0781C17.1473 23.2322 16.3177 22.6483 15.9939 21.7775L13.1409 14.1042C12.7058 12.9055 13.3129 11.584 14.4865 11.1434C14.7495 11.041 15.0126 11 15.2756 11C16.2064 11 17.0765 11.5737 17.4103 12.506L19.6463 18.6221H24.5936C25.8076 18.6221 26.9003 19.5236 26.9914 20.7427C27.0521 21.4496 26.789 22.095 26.3337 22.5561C25.9189 22.9761 25.3524 23.2322 24.7251 23.2322H22.3779Z" stroke="#EE2737" stroke-width="1.5" stroke-linecap="round" stroke-linejoin="round"/>
</g>
<defs>
<clipPath id="clip0_1212_189665">
<rect width="40" height="40" rx="20" fill="white"/>
</clipPath>
</defs>
</svg>
