<svg width="54" height="54" viewBox="0 0 54 54" fill="none" xmlns="http://www.w3.org/2000/svg">
<rect x="1" y="1" width="52" height="52" rx="6" fill="white"/>
<g clip-path="url(#clip0_4686_4353)">
<path d="M8.73805 26.1794C8.73805 27.4806 7.64643 27.7886 6.09176 27.7425C6.13786 28.3522 6.43748 28.8802 7.22948 28.8802C7.64085 28.8772 8.0412 28.7469 8.37557 28.5072L8.69405 29.2615C8.22525 29.573 7.6728 29.7345 7.11005 29.7246C5.57214 29.7246 4.99805 28.7147 4.99805 27.4324C4.99805 26.0223 5.79005 24.8951 7.24414 24.8951C8.16395 24.8951 8.73595 25.3141 8.73595 26.1773M7.19805 25.6954C6.46052 25.6954 6.1609 26.3785 6.08757 26.9693C6.22376 26.9693 6.33271 26.9693 6.45214 26.9693C7.25252 26.9693 7.76166 26.7598 7.76166 26.2234C7.76166 25.8316 7.53329 25.687 7.19805 25.687" fill="#FF4612"/>
<path d="M13.3874 28.6728C13.3874 28.855 13.4314 28.9179 13.597 28.9284L13.861 28.9451V29.601H12.5053L12.4781 29.119H12.4509C12.3094 29.3181 12.12 29.4782 11.9003 29.5848C11.6806 29.6913 11.4376 29.7409 11.1937 29.7288C9.85697 29.7183 9.38135 28.7754 9.38135 27.5078C9.38135 25.907 10.1817 24.8971 11.7825 24.8971C12.3312 24.9143 12.8733 25.0212 13.3874 25.2135V28.6728ZM12.3147 25.8421C12.0969 25.7585 11.8649 25.7179 11.6316 25.7227C10.7307 25.7227 10.4667 26.5608 10.4667 27.4785C10.4667 28.1971 10.649 28.9074 11.4033 28.9074C11.5192 28.9173 11.6358 28.903 11.7459 28.8653C11.8559 28.8276 11.957 28.7675 12.0425 28.6886C12.128 28.6098 12.1962 28.514 12.2427 28.4074C12.2892 28.3008 12.313 28.1857 12.3126 28.0693L12.3147 25.8421Z" fill="#FF4612"/>
<path d="M18.0805 25.0145V25.6598L15.6668 28.853H17.3744C17.5651 28.853 17.6615 28.5994 17.6615 28.5994L18.1161 28.2516L17.9401 29.5989H14.4097V28.9347L16.8213 25.7688H15.6019C15.3923 25.7688 15.3567 25.8232 15.3567 26.0055V26.4246L14.4914 26.3596V25.0145H18.0805Z" fill="#FF4612"/>
<path d="M27.4859 28.6434C27.4859 28.853 27.5048 28.8886 27.6766 28.9158L27.949 28.943V29.5989H26.6038L26.5766 29.117H26.541C26.4012 29.3177 26.2121 29.4792 25.992 29.5859C25.7719 29.6927 25.528 29.7412 25.2838 29.7267C23.901 29.7267 23.4819 28.679 23.4819 27.4701C23.4819 25.9783 24.2362 24.9055 25.6191 24.9055C25.8909 24.9047 26.161 24.9471 26.4195 25.0312V24.0863C26.4195 23.8956 26.365 23.8495 26.1911 23.8223L25.9082 23.795V23.1183H27.4817L27.4859 28.6434ZM26.4216 28.0798V25.8777C26.1971 25.7706 25.9516 25.7148 25.7029 25.7143C24.8648 25.7143 24.584 26.4602 24.584 27.3611C24.584 28.172 24.7663 28.899 25.5206 28.899C26.0926 28.899 26.4216 28.5533 26.4216 28.0798Z" fill="#FF4612"/>
<path d="M30.1241 28.8802L30.606 28.9179V29.601H28.5506V28.9451L28.8418 28.9179C29.0136 28.8907 29.0514 28.8446 29.0514 28.6183V25.9971C29.0514 25.7876 28.9969 25.752 28.823 25.7248L28.5317 25.7059V25.0145H30.1241V28.8802ZM29.5333 23.0952C29.6177 23.0883 29.7026 23.0989 29.7827 23.1264C29.8628 23.1538 29.9363 23.1976 29.9987 23.2548C30.0611 23.3121 30.1109 23.3816 30.1451 23.4591C30.1794 23.5366 30.1972 23.6203 30.1975 23.705C30.1977 23.7913 30.1801 23.8768 30.1458 23.9561C30.1115 24.0354 30.0612 24.1067 29.9981 24.1657C29.935 24.2247 29.8604 24.2701 29.779 24.2989C29.6975 24.3278 29.6111 24.3396 29.5249 24.3335C29.4362 24.345 29.3462 24.3375 29.2607 24.3115C29.1752 24.2854 29.0962 24.2414 29.0291 24.1824C28.9619 24.1234 28.9081 24.0508 28.8712 23.9694C28.8344 23.8879 28.8153 23.7996 28.8153 23.7102C28.8153 23.6208 28.8344 23.5325 28.8712 23.451C28.9081 23.3696 28.9619 23.297 29.0291 23.238C29.0962 23.179 29.1752 23.135 29.2607 23.1089C29.3462 23.0829 29.4362 23.0753 29.5249 23.0869" fill="#FF4612"/>
<path d="M31.6432 25.9971C31.6432 25.7876 31.5887 25.752 31.4148 25.7248L31.1235 25.7059V25.0145H32.6384V25.643C32.7786 25.4022 32.9829 25.205 33.2285 25.0733C33.4741 24.9416 33.7514 24.8806 34.0296 24.8971C34.9473 24.8971 35.4397 25.3874 35.4397 26.4518V28.8907L35.9028 28.9179V29.601H33.8955V28.9535L34.1679 28.9263C34.323 28.899 34.3774 28.853 34.3774 28.6623V26.7074C34.3774 26.1522 34.2517 25.7876 33.6588 25.7876C33.5319 25.7864 33.4062 25.8109 33.289 25.8597C33.1719 25.9084 33.0659 25.9804 32.9774 26.0713C32.8889 26.1621 32.8197 26.27 32.7741 26.3883C32.7284 26.5067 32.7072 26.633 32.7117 26.7598V28.8907L33.1475 28.9179V29.601H31.1361V28.9451L31.419 28.9179C31.5929 28.9179 31.6285 28.8446 31.6285 28.6539L31.6432 25.9971Z" fill="#FF4612"/>
<path d="M40.2291 26.1794C40.2291 27.4806 39.1375 27.7886 37.5828 27.7425C37.6289 28.3522 37.9285 28.8802 38.7205 28.8802C39.1319 28.8772 39.5323 28.7469 39.8666 28.5072L40.1851 29.2615C39.7163 29.5729 39.1638 29.7344 38.6011 29.7246C37.0632 29.7246 36.4912 28.7147 36.4912 27.4324C36.4912 26.0223 37.2832 24.8951 38.7394 24.8951C39.6571 24.8951 40.2312 25.3141 40.2312 26.1773M38.6933 25.6954C37.9579 25.6954 37.6457 26.3785 37.5828 26.9693C37.719 26.9693 37.828 26.9693 37.9474 26.9693C38.7478 26.9693 39.2569 26.7598 39.2569 26.2234C39.2569 25.8316 39.0285 25.687 38.6933 25.687" fill="#FF4612"/>
<path d="M42.3957 26.7347V28.8802L43.1227 28.9179V29.601H40.8305V28.9451L41.1029 28.9179C41.3124 28.8907 41.3313 28.8257 41.3313 28.6183V25.9783C41.3313 25.796 41.2768 25.752 41.1218 25.7227L40.8096 25.7059V25.0145H42.3014V25.7059C42.4075 25.4545 42.5886 25.2419 42.8199 25.0972C43.0513 24.9524 43.3216 24.8826 43.5941 24.8971C43.8834 24.8876 44.1707 24.9472 44.4322 25.071V26.5901L43.5229 26.6529V26.0789C43.5229 25.9238 43.5229 25.8693 43.4412 25.8421C43.3612 25.8078 43.2746 25.792 43.1877 25.796C42.6869 25.796 42.3873 26.1962 42.3873 26.7326" fill="#FF4612"/>
<path d="M21.372 25.0145V25.7143L21.7722 25.752L20.9047 28.3899H20.8775L20.1043 25.9783C20.0582 25.8232 20.1043 25.7415 20.251 25.7227L20.4773 25.7038V25.0124H18.5308V25.685L18.931 25.7394L20.3977 29.7204L20.2363 30.1017C20.0541 30.548 19.8173 30.6381 19.4171 30.6863C19.1338 30.7058 18.8512 30.6394 18.6063 30.4956C18.028 30.1876 17.8792 29.2217 18.5162 28.985C18.7257 28.9095 18.952 29.2196 19.2181 28.8655C19.2502 28.815 19.2715 28.7584 19.2806 28.6992C19.2897 28.64 19.2865 28.5796 19.2712 28.5218C19.2558 28.4639 19.2287 28.4098 19.1914 28.363C19.1541 28.3161 19.1076 28.2775 19.0546 28.2495C18.3758 27.7697 17.4015 28.3585 17.2904 29.1232C17.1689 29.9613 17.4224 30.7994 18.1285 31.2185C18.5327 31.4693 19.0025 31.594 19.4779 31.5768C20.3725 31.5223 20.9445 30.8309 21.3782 29.6387L22.7255 25.972C22.7988 25.7813 22.8449 25.7352 23.0167 25.708L23.2263 25.6912V25.0145H21.372Z" fill="#FF4612"/>
<path d="M46.9423 21.1383C46.9238 21.1005 46.896 21.068 46.8616 21.0438C46.8272 21.0196 46.7872 21.0046 46.7453 21C46.7035 21.0046 46.6635 21.0196 46.6291 21.0438C46.5946 21.068 46.5669 21.1005 46.5484 21.1383C46.4898 21.2389 46.4519 21.3503 46.4372 21.4659C46.4224 21.5814 46.431 21.6987 46.4625 21.8109C46.475 21.8466 46.4957 21.8788 46.523 21.9051C46.5503 21.9313 46.5834 21.9507 46.6196 21.9617C46.6196 21.9617 46.6951 21.9764 46.6972 22.0455L46.6427 22.957H46.8522L46.7977 22.0455C46.7977 21.9764 46.8753 21.9617 46.8753 21.9617C46.9115 21.9507 46.9445 21.9313 46.9718 21.9051C46.9991 21.8788 47.0199 21.8466 47.0324 21.8109C47.0639 21.6987 47.0725 21.5814 47.0577 21.4659C47.0429 21.3503 47.0051 21.2389 46.9465 21.1383" fill="#131718"/>
<path d="M48.3796 21.8968C48.393 21.8569 48.3962 21.8144 48.3888 21.773C48.3815 21.7317 48.3639 21.6928 48.3377 21.66C48.3049 21.6338 48.266 21.6162 48.2247 21.6089C48.1833 21.6016 48.1408 21.6047 48.101 21.6181C47.988 21.6483 47.8822 21.701 47.7901 21.773C47.6979 21.845 47.6212 21.9348 47.5646 22.0371C47.5488 22.0698 47.5406 22.1056 47.5406 22.1419C47.5406 22.1782 47.5488 22.214 47.5646 22.2467C47.5773 22.2632 47.5843 22.2834 47.5843 22.3043C47.5843 22.3251 47.5773 22.3454 47.5646 22.3619L46.8857 22.9674L46.957 23.0387L47.0282 23.1099L47.6337 22.429C47.6504 22.4165 47.6706 22.4098 47.6914 22.4098C47.7121 22.4098 47.7323 22.4165 47.749 22.429C47.7817 22.4447 47.8175 22.4529 47.8537 22.4529C47.89 22.4529 47.9258 22.4447 47.9585 22.429C48.0608 22.3723 48.1507 22.2956 48.2227 22.2035C48.2947 22.1113 48.3474 22.0056 48.3776 21.8926" fill="#FF4612"/>
<path d="M48.8616 23.4472C48.8993 23.4286 48.9317 23.4008 48.9559 23.3664C48.98 23.332 48.9952 23.2921 48.9999 23.2503C48.9952 23.2085 48.98 23.1686 48.9559 23.1342C48.9317 23.0998 48.8993 23.072 48.8616 23.0533C48.761 22.9947 48.6496 22.9569 48.5341 22.9421C48.4185 22.9274 48.3012 22.936 48.1891 22.9674C48.1533 22.9799 48.1211 23.0007 48.0949 23.028C48.0687 23.0553 48.0492 23.0884 48.0382 23.1246C48.0382 23.1246 48.0235 23.2 47.9544 23.2021L47.043 23.1497V23.2503V23.3529L47.9544 23.2985C48.0235 23.2985 48.0382 23.376 48.0382 23.376C48.0492 23.4122 48.0687 23.4453 48.0949 23.4726C48.1211 23.4999 48.1533 23.5206 48.1891 23.5331C48.3012 23.5646 48.4185 23.5732 48.5341 23.5584C48.6496 23.5437 48.761 23.5059 48.8616 23.4472Z" fill="#131718"/>
<path d="M48.1031 24.8846C48.1429 24.8979 48.1854 24.9011 48.2268 24.8938C48.2681 24.8864 48.307 24.8689 48.3398 24.8427C48.366 24.8098 48.3836 24.771 48.3909 24.7296C48.3982 24.6883 48.3951 24.6457 48.3817 24.6059C48.3516 24.4929 48.2989 24.3872 48.2269 24.295C48.1549 24.2028 48.065 24.1262 47.9627 24.0695C47.9301 24.0536 47.8942 24.0453 47.8579 24.0453C47.8216 24.0453 47.7858 24.0536 47.7532 24.0695C47.7365 24.0819 47.7163 24.0886 47.6955 24.0886C47.6748 24.0886 47.6546 24.0819 47.6379 24.0695L47.0324 23.3886L46.9612 23.4598L46.8857 23.5373L47.5667 24.1429C47.5789 24.1592 47.5856 24.179 47.5856 24.1994C47.5856 24.2198 47.5789 24.2397 47.5667 24.256C47.5509 24.2887 47.5427 24.3245 47.5427 24.3608C47.5427 24.397 47.5509 24.4329 47.5667 24.4655C47.6234 24.5678 47.7001 24.6576 47.7923 24.7296C47.8844 24.8016 47.9901 24.8543 48.1031 24.8846Z" fill="#131718"/>
<path d="M46.5506 25.3665C46.5693 25.4042 46.5971 25.4366 46.6315 25.4607C46.6659 25.4849 46.7058 25.5 46.7476 25.5048C46.7894 25.5 46.8293 25.4849 46.8637 25.4607C46.8981 25.4366 46.9259 25.4042 46.9445 25.3665C47.0033 25.2659 47.0412 25.1545 47.0559 25.0389C47.0707 24.9234 47.062 24.806 47.0304 24.6939C47.0181 24.6581 46.9974 24.6257 46.9701 24.5995C46.9427 24.5733 46.9096 24.5539 46.8733 24.543C46.8733 24.543 46.7979 24.5284 46.7958 24.4592L46.8502 23.5478H46.6407L46.6952 24.4592C46.6952 24.5284 46.6177 24.543 46.6177 24.543C46.5815 24.5541 46.5484 24.5735 46.5211 24.5997C46.4938 24.6259 46.473 24.6582 46.4605 24.6939C46.4291 24.806 46.4205 24.9234 46.4352 25.0389C46.45 25.1544 46.4878 25.2658 46.5464 25.3665" fill="#131718"/>
<path d="M45.1131 24.608C45.0998 24.6478 45.0966 24.6904 45.1039 24.7317C45.1113 24.7731 45.1288 24.8119 45.155 24.8448C45.1879 24.871 45.2267 24.8885 45.2681 24.8958C45.3094 24.9032 45.352 24.9 45.3918 24.8867C45.5048 24.8565 45.6105 24.8038 45.7027 24.7318C45.7949 24.6598 45.8715 24.5699 45.9282 24.4676C45.9439 24.4349 45.9521 24.3991 45.9521 24.3629C45.9521 24.3266 45.9439 24.2908 45.9282 24.2581C45.9158 24.2414 45.9091 24.2212 45.9091 24.2005C45.9091 24.1797 45.9158 24.1595 45.9282 24.1429L46.6133 23.5373L46.5421 23.4661L46.4667 23.3907L45.8611 24.0716C45.8446 24.0844 45.8244 24.0913 45.8035 24.0913C45.7827 24.0913 45.7624 24.0844 45.7459 24.0716C45.7132 24.0558 45.6774 24.0476 45.6411 24.0476C45.6048 24.0476 45.569 24.0558 45.5364 24.0716C45.434 24.1282 45.3442 24.2049 45.2722 24.2971C45.2002 24.3893 45.1475 24.495 45.1173 24.608" fill="#131718"/>
<path d="M44.6334 23.0554C44.5957 23.0741 44.5633 23.1019 44.5392 23.1363C44.515 23.1707 44.4999 23.2106 44.4951 23.2524C44.4999 23.2942 44.515 23.3341 44.5392 23.3685C44.5633 23.4029 44.5957 23.4307 44.6334 23.4493C44.734 23.508 44.8454 23.5458 44.961 23.5605C45.0765 23.5753 45.1938 23.5667 45.306 23.5352C45.3417 23.5227 45.374 23.502 45.4002 23.4747C45.4264 23.4474 45.4458 23.4143 45.4568 23.3781C45.4568 23.3781 45.4715 23.3027 45.5406 23.3006L46.4521 23.355V23.2524V23.1497L45.5406 23.2042C45.4715 23.2042 45.4568 23.1267 45.4568 23.1267C45.4458 23.0905 45.4264 23.0574 45.4002 23.0301C45.374 23.0028 45.3417 22.982 45.306 22.9695C45.1938 22.9381 45.0765 22.9295 44.961 22.9442C44.8454 22.959 44.734 22.9968 44.6334 23.0554Z" fill="#131718"/>
<path d="M45.3918 21.6181C45.352 21.6047 45.3094 21.6016 45.2681 21.6089C45.2267 21.6162 45.1879 21.6338 45.155 21.66C45.1288 21.6928 45.1113 21.7317 45.1039 21.773C45.0966 21.8144 45.0998 21.8569 45.1131 21.8968C45.1433 22.0098 45.196 22.1155 45.268 22.2077C45.34 22.2998 45.4298 22.3765 45.5322 22.4331C45.5648 22.4489 45.6007 22.4571 45.6369 22.4571C45.6732 22.4571 45.709 22.4489 45.7417 22.4331C45.7583 22.4207 45.7786 22.414 45.7993 22.414C45.8201 22.414 45.8403 22.4207 45.8569 22.4331L46.4667 23.1183L46.5379 23.047L46.6091 22.9758L45.9282 22.3703C45.9154 22.3538 45.9085 22.3335 45.9085 22.3127C45.9085 22.2918 45.9154 22.2716 45.9282 22.255C45.9439 22.2224 45.9521 22.1866 45.9521 22.1503C45.9521 22.114 45.9439 22.0782 45.9282 22.0455C45.8715 21.9432 45.7949 21.8533 45.7027 21.7813C45.6105 21.7093 45.5048 21.6567 45.3918 21.6265" fill="#131718"/>
</g>
<rect x="1" y="1" width="52" height="52" rx="6" stroke="#EAEAEC"/>
<defs>
<clipPath id="clip0_4686_4353">
<rect width="44" height="10.5768" fill="white" transform="translate(5 21)"/>
</clipPath>
</defs>
</svg>
