<svg width="40" height="40" viewBox="0 0 40 40" fill="none" xmlns="http://www.w3.org/2000/svg">
    <rect x="1" y="1" width="38" height="38" rx="19" fill="#fff"/>
    <path d="m11.38 10.003 20.094 8.795L14.17 32.38l-2.79-22.377z" fill="#fff"/>
    <path d="m15.597 30.976 1.234-1.235a6.763 6.763 0 0 1-.308-.902l-2.273-8.491-1.827-6.816-.449-1.677a3.773 3.773 0 0 1 1.017-4.306 2.8 2.8 0 0 0-.894.325l-.081.049-.03.02-.068.045-.046.033-.054.038-.096.077-.026.022-.078.069-.023.021-.085.082-.01.01a4.523 4.523 0 0 0-1.074 3.23v17.58a4.661 4.661 0 0 0 .957 3.103 3.786 3.786 0 0 0 4.214-1.277z" fill="#276FB7"/>
    <path d="m31.357 17.067-7.614-4.402-7.615-4.401a4.68 4.68 0 0 0-3.145-.728 3.774 3.774 0 0 0-1.017 4.306l.449 1.677c.315.04.628.101.934.184l8.494 2.272 6.819 1.827 1.677.45c1.989.532 3.092 1.671 3.22 3.024v.015c.526-1.467-.206-3.072-2.202-4.224z" fill="#EF5F24"/>
    <path d="m16.138 32.453 1.815-1.048.033-.018 5.754-3.322 7.615-4.402a4.665 4.665 0 0 0 2.207-2.375c-.128-1.355-1.236-2.494-3.22-3.025l-1.678-.45a6.757 6.757 0 0 1-.632.724l-6.218 6.217-4.983 4.981-1.235 1.234a3.785 3.785 0 0 1-4.217 1.278c1.024 1.193 2.773 1.352 4.759.206z" fill="#6EBD46"/>
    <rect x="1" y="1" width="38" height="38" rx="19" stroke="#FEFAF6" stroke-width="2"/>
</svg>
