<svg width="40" height="40" viewBox="0 0 40 40" fill="none" xmlns="http://www.w3.org/2000/svg">
<rect width="40" height="40" rx="20" fill="white"/>
<path d="M15.583 25.792C15.5852 25.792 15.5875 25.7914 15.5894 25.7902L27.8169 18.7325C28.95 18.076 29.3367 16.6371 28.6802 15.504C28.0237 14.3709 26.5849 13.9842 25.4517 14.6406L21.0598 17.1732C20.7312 17.3627 20.3238 17.35 20.0077 17.1404L16.1025 14.5512C15.7863 14.3415 15.3787 14.3288 15.0501 14.5185L13.9605 15.1472C13.3946 15.4738 13.2887 16.2463 13.7458 16.7131L16.6746 19.7037L15.5145 20.3782L13.3017 19.8941C13.059 19.841 12.8052 19.8802 12.5897 20.004L12.0961 20.2878C11.5366 20.6094 11.4237 21.3689 11.8655 21.8393L15.5736 25.7879C15.5761 25.7905 15.5794 25.792 15.583 25.792V25.792Z" stroke="#EE2737" stroke-width="2" stroke-linecap="round" stroke-linejoin="round"/>
</svg>
