<svg width="40" height="40" viewBox="0 0 40 40" fill="none" xmlns="http://www.w3.org/2000/svg">
<rect width="40" height="40" rx="20" fill="white"/>
<path d="M11.4 26.3797V22.2397H28.6V26.3797" stroke="#EE2737" stroke-width="2" stroke-linecap="round" stroke-linejoin="round"/>
<path d="M15.5 19.25C15.9142 19.25 16.25 18.9142 16.25 18.5C16.25 18.0858 15.9142 17.75 15.5 17.75C15.0858 17.75 14.75 18.0858 14.75 18.5C14.75 18.9142 15.0858 19.25 15.5 19.25Z" stroke="#EE2737" stroke-width="1.6" stroke-linecap="round" stroke-linejoin="round"/>
<path d="M25.0481 17.75H19.4519C18.9262 17.75 18.5 18.0858 18.5 18.5C18.5 18.9142 18.9262 19.25 19.4519 19.25H25.0481C25.5738 19.25 26 18.9142 26 18.5C26 18.0858 25.5738 17.75 25.0481 17.75Z" stroke="#EE2737" stroke-width="1.6" stroke-linecap="round" stroke-linejoin="round"/>
<path d="M11.4 13.6206V22.2406" stroke="#EE2737" stroke-width="2" stroke-linecap="round" stroke-linejoin="round"/>
</svg>
