<svg width="40" height="40" viewBox="0 0 40 40" fill="none" xmlns="http://www.w3.org/2000/svg">
<rect width="40" height="40" rx="20" fill="#EB242A"/>
<path d="M30.4721 13.9071C30.0844 14.3385 27.5367 19.1063 27.149 19.8474C26.6395 20.7656 26.1632 21.0643 25.7865 21.0643C24.9447 21.0643 25.1109 19.7036 25.2438 19.239C25.5668 17.6724 26.1629 16.1747 27.005 14.8142C27.1387 14.654 27.2243 14.4593 27.2519 14.2526C27.2796 14.0459 27.2482 13.8356 27.1614 13.646C27.0745 13.4563 26.9358 13.2951 26.7611 13.1808C26.5865 13.0665 26.383 13.0038 26.1742 13C25.1441 13 24.7564 13.6416 24.7564 14.7036C24.4573 15.5222 23.8592 16.9824 23.7595 17.1262C22.9342 18.601 21.9698 19.9937 20.8795 21.2855C20.7466 21.4072 20.5582 21.4293 20.5582 21.2855C20.7696 19.4501 21.1402 17.6364 21.6659 15.8651C21.6752 15.7621 21.6752 15.6584 21.6659 15.5554C21.6815 15.4359 21.6718 15.3144 21.6374 15.1989C21.6031 15.0834 21.545 14.9764 21.4667 14.8847C21.3884 14.7929 21.2918 14.7186 21.183 14.6665C21.0743 14.6143 20.9558 14.5855 20.8352 14.5819C20.2592 14.5266 19.9601 14.8031 19.4284 15.4337C18.3207 16.8717 16.8918 19.0288 16.2272 20.0134C16.1607 20.124 16.0278 20.0908 16.0278 19.947C16.0278 19.4935 17.4346 14.5376 17.4346 14.5376C17.4634 14.4175 17.4631 14.2922 17.4336 14.1722C17.4041 14.0522 17.3463 13.941 17.265 13.8479C17.1837 13.7548 17.0812 13.6824 16.9662 13.6369C16.8512 13.5914 16.7269 13.5741 16.6038 13.5863C15.9281 13.5863 14.5324 15.489 12.3392 18.52C12.2617 18.6195 12.1177 18.52 12.1509 18.4647C12.6623 17.2345 12.9979 15.9386 13.1478 14.6151C13.1478 13.8075 12.7933 13.3982 12.0401 13.3982C11.3313 13.4672 10.6606 13.7511 10.118 14.2118C9.57546 14.6726 9.18709 15.2881 9.00505 15.9757C8.99283 16.0844 9.00285 16.1945 9.03452 16.2992C9.0662 16.404 9.11887 16.5012 9.18931 16.585C9.25975 16.6688 9.34649 16.7374 9.4443 16.7867C9.5421 16.836 9.64893 16.8649 9.75827 16.8717C10.4561 16.8717 10.6223 15.5885 11.1207 15.5885C11.2204 15.5885 11.2204 15.6992 11.2204 15.7213C10.7348 17.9211 10.1283 20.0925 9.4038 22.2258C9.10472 23.1329 9.29306 23.7966 10.0574 23.7966C10.6223 23.7966 11.165 23.2656 11.6635 22.447C12.503 21.0555 13.424 19.7147 14.4216 18.4315C14.477 18.4315 14.4992 18.4315 14.4992 18.4979C14.2887 19.6041 13.3915 23.1218 15.1306 23.1218C15.3265 23.1219 15.5202 23.0793 15.6981 22.9972C15.876 22.9151 16.0338 22.7953 16.1607 22.6461C17.267 21.2829 18.2668 19.8369 19.1515 18.3209C19.229 18.1992 19.2844 18.3209 19.2623 18.3872C19.074 19.2833 18.4204 21.8054 18.4204 22.3917C18.4204 23.7192 19.3952 23.7192 19.4284 23.7192C21.3004 23.7192 23.1724 20.4005 23.4936 19.9581C22.9176 21.9603 23.8703 23.9404 25.9084 23.1329C25.0209 24.9558 24.4872 26.9302 24.3355 28.9515C24.3355 30.3122 25.0998 30.9869 25.8752 30.9869C26.0063 31.0089 26.1406 31.0031 26.2694 30.9701C26.3982 30.9371 26.5186 30.8775 26.623 30.7952C26.7273 30.7128 26.8132 30.6096 26.8752 30.4921C26.9372 30.3747 26.9739 30.2455 26.9829 30.113C26.1964 28.6307 26.9053 24.759 28.8881 20.2788C29.8407 19.1726 32.2112 15.6107 32.2112 14.4713C32.2272 14.3495 32.2166 14.2258 32.1802 14.1086C32.1439 13.9913 32.0826 13.8832 32.0005 13.7918C31.9185 13.7004 31.8176 13.6278 31.7049 13.579C31.5921 13.5302 31.47 13.5062 31.3471 13.5089C31.1742 13.5058 31.003 13.5433 30.8472 13.6182C30.6914 13.6931 30.5554 13.8034 30.4499 13.9403" fill="white"/>
</svg>
