<svg width="50" height="50" viewBox="0 0 50 50" fill="none" xmlns="http://www.w3.org/2000/svg">
    <path d="M30.661 44.972H18.339A6.343 6.343 0 0 1 12 38.624V11.348A6.343 6.343 0 0 1 18.339 5h12.322A6.343 6.343 0 0 1 37 11.348v27.276a6.343 6.343 0 0 1-6.339 6.348z" fill="url(#fjqpg04j0a)"/>
    <path d="M24.5 40.744a4.893 4.893 0 0 1-4.761-3.777l-5.617-23.911c-.722-3.075 1.608-6.02 4.762-6.02h11.232c3.154 0 5.483 2.945 4.761 6.02l-5.616 23.911a4.892 4.892 0 0 1-4.76 3.777z" fill="url(#ectiiznnhb)"/>
    <path d="M24.5 38.431a2.834 2.834 0 0 0 2.832-2.836 2.834 2.834 0 0 0-2.832-2.836 2.834 2.834 0 0 0-2.832 2.836 2.834 2.834 0 0 0 2.832 2.836z" fill="url(#c5oz9htgoc)"/>
    <path d="M20.702 20.738a.365.365 0 0 1-.257-.622 5.691 5.691 0 0 1 4.055-1.68c1.526 0 2.966.596 4.054 1.68a.365.365 0 0 1-.513.516 4.989 4.989 0 0 0-3.541-1.469 4.971 4.971 0 0 0-3.541 1.468.362.362 0 0 1-.257.107z" fill="#0CBC2E" stroke="#0CBC2E" stroke-miterlimit="10"/>
    <path d="M26.875 22.164a.364.364 0 0 1-.257-.105 2.988 2.988 0 0 0-2.117-.876c-.798 0-1.55.311-2.118.876a.364.364 0 1 1-.513-.517 3.712 3.712 0 0 1 2.63-1.087c.99 0 1.924.386 2.63 1.087a.364.364 0 0 1-.255.622zM25.47 23.569a.36.36 0 0 1-.26-.11c-.37-.379-1.05-.379-1.42 0a.364.364 0 1 1-.52-.508c.647-.662 1.813-.662 2.46 0a.364.364 0 0 1-.26.618z" fill="#0CBC2E" stroke="#0CBC2E" stroke-miterlimit="10"/>
    <defs>
        <linearGradient id="fjqpg04j0a" x1="27.027" y1="4.351" x2="22.561" y2="44.521" gradientUnits="userSpaceOnUse">
            <stop offset=".01" stop-color="#F1525F"/>
            <stop offset="1" stop-color="#EE2737"/>
        </linearGradient>
        <linearGradient id="ectiiznnhb" x1="24.5" y1="7.036" x2="24.5" y2="40.744" gradientUnits="userSpaceOnUse">
            <stop stop-color="#2A3B63"/>
            <stop offset="1" stop-color="#161F33"/>
        </linearGradient>
        <linearGradient id="c5oz9htgoc" x1="24.5" y1="32.759" x2="24.5" y2="38.431" gradientUnits="userSpaceOnUse">
            <stop stop-color="#FFD133"/>
            <stop offset="1" stop-color="#FFA800"/>
        </linearGradient>
    </defs>
</svg>
