<svg width="40" height="40" viewBox="0 0 40 40" fill="none" xmlns="http://www.w3.org/2000/svg">
    <g clip-path="url(#r5p6ui2naa)">
        <rect width="40" height="40" rx="20" fill="#2F3043"/>
        <path d="M15.17 24.104C3.902 15.206 1.25.854 1.25.854L23.125-6.25S25.114.854 31.079 6.02C35.984 10.269 45 9.25 45 9.25L37.045 32.5s-12.594-1.068-21.875-8.396z" fill="#EE2737"/>
        <path fill-rule="evenodd" clip-rule="evenodd" d="M5.108 19.625v-4.967h1.384v.7c.303-.52.775-.78 1.414-.78.772 0 1.28.303 1.523.907.126-.256.338-.471.638-.645.3-.174.642-.261 1.024-.261.534 0 .966.172 1.295.517.33.345.495.77.495 1.276v3.253h-1.375v-2.82c0-.321-.08-.579-.242-.773a.79.79 0 0 0-.638-.29.867.867 0 0 0-.682.29c-.172.194-.257.452-.257.774v2.819H8.302v-2.82c0-.321-.079-.579-.237-.773a.777.777 0 0 0-.633-.29.868.868 0 0 0-.683.29c-.171.194-.257.452-.257.774v2.819H5.108zM18.152 18.98c-.494.482-1.124.723-1.889.723-.765 0-1.394-.241-1.889-.724-.494-.483-.741-1.095-.741-1.838 0-.742.247-1.355.741-1.838.495-.483 1.124-.724 1.89-.724.764 0 1.394.241 1.888.724s.742 1.096.742 1.838c0 .743-.247 1.355-.742 1.838zM20.792 19.625l-1.82-4.967h1.405l1.048 3.213 1.039-3.213h1.414l-1.82 4.967h-1.266zM29.04 15.584c-.632 0-1.005.332-1.117.995h2.206a1.063 1.063 0 0 0-.317-.714c-.191-.188-.449-.281-.771-.281zm1.128 2.355h1.345c-.099.533-.366.96-.801 1.282-.435.322-.96.482-1.572.482-.798 0-1.425-.257-1.88-.773a2.635 2.635 0 0 1-.682-1.799c0-.69.213-1.288.638-1.793.425-.506 1.034-.76 1.825-.76.81 0 1.424.244 1.84.73a2.53 2.53 0 0 1 .622 1.695c0 .151-.006.3-.02.444h-3.58c.053.354.187.632.4.832.215.2.493.3.837.3.573 0 .916-.213 1.028-.64zM34.035 19.703c-.613 0-1.11-.159-1.488-.478-.38-.318-.582-.744-.608-1.276h1.186c.026.223.12.4.282.527.162.129.371.193.628.193.21 0 .384-.046.52-.138.134-.092.202-.207.202-.345 0-.184-.093-.319-.277-.404a2.376 2.376 0 0 0-.672-.183 5.946 5.946 0 0 1-.786-.162 1.304 1.304 0 0 1-.668-.444c-.185-.223-.277-.529-.277-.916 0-.434.168-.792.504-1.075.336-.282.762-.423 1.276-.423.6 0 1.086.147 1.459.443.372.296.572.687.598 1.173h-1.197a.666.666 0 0 0-.282-.478.908.908 0 0 0-.538-.173c-.198 0-.356.043-.475.129a.413.413 0 0 0-.178.354c0 .184.094.314.282.39.188.075.415.126.682.152.267.027.534.073.801.138.267.066.495.217.682.454.188.236.283.561.283.975 0 .474-.177.853-.53 1.139-.353.285-.822.428-1.409.428zM7.006 22.958c0 .237.155.549.465.937.304-.138.534-.28.693-.424a.704.704 0 0 0 .237-.542.64.64 0 0 0-.193-.488.71.71 0 0 0-.51-.182.673.673 0 0 0-.504.192.695.695 0 0 0-.188.507zm.505 4.11c.362 0 .708-.112 1.038-.335l-1.335-1.459c-.237.125-.419.26-.544.404a.77.77 0 0 0-.188.523c0 .27.09.481.272.636.182.154.434.231.757.231zm3.857 1.124H9.874l-.534-.582a2.81 2.81 0 0 1-1.84.66c-.691 0-1.253-.187-1.685-.561-.432-.375-.648-.88-.648-1.518 0-.788.419-1.396 1.256-1.823-.409-.513-.613-.963-.613-1.35 0-.546.173-.983.519-1.311.346-.329.802-.493 1.37-.493.56 0 1.013.164 1.36.493.346.328.519.759.519 1.29 0 .454-.117.817-.351 1.09-.235.273-.556.507-.965.704l1.049 1.144.583-.69c.198-.256.397-.429.599-.518.2-.088.45-.133.746-.133v1.272c-.31 0-.62.203-.93.61l-.227.306 1.286 1.41zM14.75 21.756h1.375v1.469h1.335v1.143h-1.335v1.961c0 .473.233.71.702.71h.633v1.153h-.821c-.58 0-1.04-.158-1.38-.473-.34-.315-.509-.759-.509-1.33v-2.02h-.96v-1.144h.96v-1.469zM19.576 28.192l-1.82-4.967h1.404l1.049 3.212 1.038-3.212h1.415l-1.82 4.967h-1.266z" fill="#fff"/>
        <path fill-rule="evenodd" clip-rule="evenodd" d="M15.686 15.605c-.291-.166-.527-.03-.527.304v2.465c0 .334.236.47.527.304l2.162-1.235c.29-.166.29-.436 0-.602l-2.162-1.236z" fill="#F4D348"/>
        <path fill-rule="evenodd" clip-rule="evenodd" d="M24.442 19.625h1.384v-4.967h-1.384v4.967zm.688-7.125h.01c.4 0 .726.324.726.724 0 .4-.325.725-.727.725h-.01a.726.726 0 0 1-.726-.725c0-.4.325-.724.727-.724z" fill="#fff"/>
    </g>
    <rect x="1" y="1" width="38" height="38" rx="19" stroke="#FDF6EC" stroke-width="2"/>
    <defs>
        <clipPath id="r5p6ui2naa">
            <rect width="40" height="40" rx="20" fill="#fff"/>
        </clipPath>
    </defs>
</svg>
